<svg width="50" height="50" viewBox="0 0 50 50" fill="none" xmlns="http://www.w3.org/2000/svg">
<g clip-path="url(#clip0_256_17542)">
<rect width="50" height="50" rx="25" fill="#C8D5FF"/>
<path d="M48.4261 44.9687C48.4261 32.5559 38.0282 16.4999 25.2016 16.4999C12.375 16.4999 1.97705 32.5559 1.97705 44.9687C1.97705 57.3815 12.375 67.4441 25.2016 67.4441C38.0282 67.4441 48.4261 57.3815 48.4261 44.9687Z" fill="url(#paint0_linear_256_17542)"/>
<ellipse cx="19.208" cy="31.4835" rx="1.19869" ry="1.49836" fill="black"/>
<ellipse cx="31.1948" cy="31.4835" rx="1.19869" ry="1.49836" fill="black"/>
<path d="M25.576 15.3761V15.3761C24.7027 13.193 25.4925 10.687 27.4489 9.38269V9.38269" stroke="black" stroke-width="0.599343"/>
<path d="M24.6055 36.993V36.993C26.3808 37.3804 28.2243 36.7487 29.3889 35.3538L29.4927 35.2294" stroke="black" stroke-width="0.973933"/>
<path d="M28.1985 16.8745C28.1985 17.9089 26.8568 17.2491 25.2018 17.2491C23.5468 17.2491 22.2051 17.9089 22.2051 16.8745C22.2051 15.8401 23.5468 15.0015 25.2018 15.0015C26.8568 15.0015 28.1985 15.8401 28.1985 16.8745Z" fill="#6488FE"/>
<circle cx="27.0745" cy="9.3827" r="1.12377" fill="#6085FE"/>
</g>
<defs>
<linearGradient id="paint0_linear_256_17542" x1="6.09754" y1="57.3302" x2="45.0548" y2="32.9818" gradientUnits="userSpaceOnUse">
<stop stop-color="#94ADFF"/>
<stop offset="1" stop-color="#5F84FE"/>
</linearGradient>
<clipPath id="clip0_256_17542">
<rect width="50" height="50" rx="25" fill="white"/>
</clipPath>
</defs>
</svg>
