<svg width="24" height="24" viewBox="0 0 24 24" fill="none" xmlns="http://www.w3.org/2000/svg">
<path d="M7.0003 13.4096L11.2903 9.16958C11.3833 9.07585 11.4939 9.00146 11.6157 8.95069C11.7376 8.89992 11.8683 8.87378 12.0003 8.87378C12.1323 8.87378 12.263 8.89992 12.3849 8.95069C12.5067 9.00146 12.6173 9.07585 12.7103 9.16958L16.9503 13.4096C17.044 13.5025 17.1184 13.6131 17.1692 13.735C17.22 13.8569 17.2461 13.9876 17.2461 14.1196C17.2461 14.2516 17.22 14.3823 17.1692 14.5042C17.1184 14.626 17.044 14.7366 16.9503 14.8296C16.7629 15.0158 16.5095 15.1204 16.2453 15.1204C15.9811 15.1204 15.7277 15.0158 15.5403 14.8296L12.0003 11.2896L8.4603 14.8296C8.27404 15.0143 8.02264 15.1185 7.7603 15.1196C7.62869 15.1203 7.49823 15.0951 7.37639 15.0453C7.25455 14.9956 7.14373 14.9223 7.05029 14.8296C6.95322 14.74 6.87487 14.632 6.81976 14.5119C6.76465 14.3918 6.73389 14.262 6.72924 14.13C6.72459 13.998 6.74615 13.8663 6.79267 13.7427C6.8392 13.619 6.90976 13.5058 7.0003 13.4096Z" fill="#5F84FE"/>
</svg>
