<svg width="36" height="36" viewBox="0 0 36 36" fill="none" xmlns="http://www.w3.org/2000/svg">
<path d="M31.5 30C31.8978 30 32.2794 29.842 32.5607 29.5607C32.842 29.2794 33 28.8978 33 28.5V7.5C33 7.10217 32.842 6.72064 32.5607 6.43934C32.2794 6.15803 31.8978 6 31.5 6C31.1022 6 30.7206 6.15803 30.4393 6.43934C30.158 6.72064 30 7.10217 30 7.5V28.5C30 28.8978 30.158 29.2794 30.4393 29.5607C30.7206 29.842 31.1022 30 31.5 30ZM3.12 18.57C3.19139 18.7541 3.29844 18.9223 3.435 19.065L9.435 25.065C9.57486 25.2049 9.74089 25.3158 9.92363 25.3915C10.1064 25.4672 10.3022 25.5061 10.5 25.5061C10.8995 25.5061 11.2825 25.3475 11.565 25.065C11.8475 24.7825 12.0061 24.3995 12.0061 24C12.0061 23.6005 11.8475 23.2175 11.565 22.935L8.115 19.5H25.5C25.8978 19.5 26.2794 19.342 26.5607 19.0607C26.842 18.7794 27 18.3978 27 18C27 17.6022 26.842 17.2206 26.5607 16.9393C26.2794 16.658 25.8978 16.5 25.5 16.5H8.115L11.565 13.065C11.7056 12.9256 11.8172 12.7597 11.8933 12.5769C11.9695 12.3941 12.0087 12.198 12.0087 12C12.0087 11.802 11.9695 11.6059 11.8933 11.4231C11.8172 11.2403 11.7056 11.0744 11.565 10.935C11.4256 10.7944 11.2597 10.6828 11.0769 10.6067C10.8941 10.5305 10.698 10.4913 10.5 10.4913C10.302 10.4913 10.1059 10.5305 9.92313 10.6067C9.74035 10.6828 9.57445 10.7944 9.435 10.935L3.435 16.935C3.29844 17.0777 3.19139 17.2459 3.12 17.43C2.96997 17.7952 2.96997 18.2048 3.12 18.57Z" fill="#7A7A7A"/>
</svg>
