<svg width="28" height="28" viewBox="0 0 28 28" fill="none" xmlns="http://www.w3.org/2000/svg">
<circle cx="14" cy="14" r="14" fill="white"/>
<path d="M19.9199 8.62C19.8185 8.37565 19.6243 8.18147 19.3799 8.08C19.2597 8.02876 19.1306 8.00158 18.9999 8H8.99994C8.73472 8 8.48037 8.10536 8.29283 8.29289C8.1053 8.48043 7.99994 8.73478 7.99994 9C7.99994 9.26522 8.1053 9.51957 8.29283 9.70711C8.48037 9.89464 8.73472 10 8.99994 10H16.5899L8.28994 18.29C8.19621 18.383 8.12182 18.4936 8.07105 18.6154C8.02028 18.7373 7.99414 18.868 7.99414 19C7.99414 19.132 8.02028 19.2627 8.07105 19.3846C8.12182 19.5064 8.19621 19.617 8.28994 19.71C8.3829 19.8037 8.4935 19.8781 8.61536 19.9289C8.73722 19.9797 8.86793 20.0058 8.99994 20.0058C9.13195 20.0058 9.26266 19.9797 9.38452 19.9289C9.50638 19.8781 9.61698 19.8037 9.70994 19.71L17.9999 11.41V19C17.9999 19.2652 18.1053 19.5196 18.2928 19.7071C18.4804 19.8946 18.7347 20 18.9999 20C19.2652 20 19.5195 19.8946 19.707 19.7071C19.8946 19.5196 19.9999 19.2652 19.9999 19V9C19.9984 8.86932 19.9712 8.74022 19.9199 8.62Z" fill="#5F84FE"/>
</svg>
