<svg width="24" height="24" viewBox="0 0 24 24" fill="none" xmlns="http://www.w3.org/2000/svg">
<rect x="1" y="1" width="22" height="22" rx="4" fill="#5F84FE" stroke="#5F84FE" stroke-width="2"/>
<path d="M18.1511 7.60928C18.0659 7.52337 17.9645 7.45517 17.8528 7.40863C17.7411 7.36209 17.6212 7.33813 17.5002 7.33813C17.3792 7.33813 17.2594 7.36209 17.1477 7.40863C17.036 7.45517 16.9346 7.52337 16.8494 7.60928L10.0202 14.4476L7.15107 11.5693C7.06259 11.4838 6.95815 11.4166 6.8437 11.3715C6.72925 11.3264 6.60703 11.3043 6.48403 11.3064C6.36104 11.3085 6.23966 11.3349 6.12684 11.3839C6.01402 11.4329 5.91196 11.5037 5.82649 11.5922C5.74102 11.6807 5.67382 11.7851 5.62871 11.8996C5.58361 12.014 5.56149 12.1362 5.56362 12.2592C5.56574 12.3822 5.59208 12.5036 5.64111 12.6164C5.69015 12.7293 5.76093 12.8313 5.84941 12.9168L9.36941 16.4368C9.45462 16.5227 9.55601 16.5909 9.66771 16.6374C9.77941 16.684 9.89923 16.7079 10.0202 16.7079C10.1412 16.7079 10.2611 16.684 10.3728 16.6374C10.4845 16.5909 10.5859 16.5227 10.6711 16.4368L18.1511 8.95678C18.2441 8.87094 18.3184 8.76676 18.3692 8.65081C18.42 8.53485 18.4462 8.40963 18.4462 8.28303C18.4462 8.15644 18.42 8.03122 18.3692 7.91526C18.3184 7.7993 18.2441 7.69512 18.1511 7.60928V7.60928Z" fill="white"/>
</svg>
