<svg width="45" height="45" viewBox="0 0 45 45" fill="none" xmlns="http://www.w3.org/2000/svg">
<circle cx="22.5" cy="22.5" r="22.5" fill="#F8F8F9"/>
<path d="M33.5335 23.8799C33.3198 23.6366 33.2019 23.3238 33.2019 22.9999C33.2019 22.6761 33.3198 22.3633 33.5335 22.1199L35.2402 20.1999C35.4283 19.9902 35.545 19.7262 35.5738 19.446C35.6025 19.1657 35.5418 18.8835 35.4002 18.6399L32.7335 14.0266C32.5934 13.7833 32.38 13.5904 32.1239 13.4755C31.8677 13.3606 31.5818 13.3295 31.3069 13.3866L28.8002 13.8933C28.4812 13.9592 28.1492 13.9061 27.8667 13.7439C27.5842 13.5818 27.3709 13.3219 27.2669 13.0133L26.4535 10.5733C26.3641 10.3084 26.1937 10.0784 25.9664 9.91573C25.7391 9.75303 25.4664 9.66589 25.1869 9.66661H19.8535C19.5628 9.65143 19.275 9.73184 19.0343 9.89556C18.7935 10.0593 18.613 10.2973 18.5202 10.5733L17.7735 13.0133C17.6695 13.3219 17.4562 13.5818 17.1737 13.7439C16.8912 13.9061 16.5591 13.9592 16.2402 13.8933L13.6669 13.3866C13.4063 13.3498 13.1406 13.3909 12.9033 13.5048C12.666 13.6187 12.4678 13.8002 12.3335 14.0266L9.66685 18.6399C9.52173 18.8808 9.45648 19.1614 9.48043 19.4416C9.50438 19.7218 9.6163 19.9872 9.80019 20.1999L11.4935 22.1199C11.7073 22.3633 11.8252 22.6761 11.8252 22.9999C11.8252 23.3238 11.7073 23.6366 11.4935 23.8799L9.80019 25.7999C9.6163 26.0127 9.50438 26.2781 9.48043 26.5583C9.45648 26.8385 9.52173 27.1191 9.66685 27.3599L12.3335 31.9733C12.4737 32.2166 12.687 32.4094 12.9432 32.5244C13.1994 32.6393 13.4853 32.6704 13.7602 32.6133L16.2669 32.1066C16.5858 32.0407 16.9179 32.0938 17.2003 32.2559C17.4828 32.4181 17.6962 32.678 17.8002 32.9866L18.6135 35.4266C18.7063 35.7026 18.8868 35.9406 19.1276 36.1043C19.3684 36.268 19.6561 36.3485 19.9469 36.3333H25.2802C25.5597 36.334 25.8324 36.2469 26.0597 36.0842C26.287 35.9215 26.4574 35.6914 26.5469 35.4266L27.3602 32.9866C27.4642 32.678 27.6776 32.4181 27.96 32.2559C28.2425 32.0938 28.5746 32.0407 28.8935 32.1066L31.4002 32.6133C31.6751 32.6704 31.961 32.6393 32.2172 32.5244C32.4734 32.4094 32.6867 32.2166 32.8269 31.9733L35.4935 27.3599C35.6351 27.1164 35.6959 26.8342 35.6671 26.5539C35.6384 26.2737 35.5216 26.0097 35.3335 25.7999L33.5335 23.8799ZM31.5469 25.6666L32.6135 26.8666L30.9069 29.8266L29.3335 29.5066C28.3732 29.3103 27.3743 29.4734 26.5263 29.965C25.6783 30.4566 25.0404 31.2424 24.7335 32.1733L24.2269 33.6666H20.8135L20.3335 32.1466C20.0267 31.2157 19.3887 30.4299 18.5407 29.9383C17.6928 29.4468 16.6938 29.2836 15.7335 29.4799L14.1602 29.7999L12.4269 26.8533L13.4935 25.6533C14.1495 24.9199 14.5121 23.9705 14.5121 22.9866C14.5121 22.0027 14.1495 21.0533 13.4935 20.3199L12.4269 19.1199L14.1335 16.1866L15.7069 16.5066C16.6671 16.7029 17.6661 16.5398 18.5141 16.0482C19.362 15.5566 20 14.7708 20.3069 13.8399L20.8135 12.3333H24.2269L24.7335 13.8533C25.0404 14.7842 25.6783 15.57 26.5263 16.0615C27.3743 16.5531 28.3732 16.7162 29.3335 16.5199L30.9069 16.1999L32.6135 19.1599L31.5469 20.3599C30.8983 21.0916 30.5401 22.0355 30.5401 23.0133C30.5401 23.991 30.8983 24.9349 31.5469 25.6666ZM22.5202 17.6666C21.4654 17.6666 20.4342 17.9794 19.5571 18.5654C18.6801 19.1515 17.9965 19.9844 17.5928 20.959C17.1892 21.9335 17.0835 23.0059 17.2893 24.0404C17.4951 25.075 18.0031 26.0253 18.749 26.7712C19.4948 27.5171 20.4451 28.025 21.4797 28.2308C22.5143 28.4366 23.5866 28.331 24.5612 27.9273C25.5357 27.5236 26.3687 26.84 26.9547 25.963C27.5407 25.0859 27.8535 24.0548 27.8535 22.9999C27.8535 21.5855 27.2916 20.2289 26.2914 19.2287C25.2912 18.2285 23.9347 17.6666 22.5202 17.6666ZM22.5202 25.6666C21.9928 25.6666 21.4772 25.5102 21.0387 25.2172C20.6001 24.9242 20.2583 24.5077 20.0565 24.0204C19.8547 23.5332 19.8019 22.997 19.9048 22.4797C20.0077 21.9624 20.2616 21.4873 20.6346 21.1143C21.0075 20.7414 21.4827 20.4874 21.9999 20.3845C22.5172 20.2816 23.0534 20.3344 23.5407 20.5363C24.0279 20.7381 24.4444 21.0799 24.7374 21.5184C25.0305 21.957 25.1869 22.4725 25.1869 22.9999C25.1869 23.7072 24.9059 24.3855 24.4058 24.8856C23.9057 25.3857 23.2274 25.6666 22.5202 25.6666Z" fill="#5F84FE"/>
</svg>
