<svg width="12" height="18" viewBox="0 0 12 18" fill="none" xmlns="http://www.w3.org/2000/svg">
<path d="M4 9C4 8.60444 3.8827 8.21776 3.66294 7.88886C3.44318 7.55996 3.13082 7.30362 2.76537 7.15224C2.39992 7.00087 1.99778 6.96126 1.60982 7.03843C1.22186 7.1156 0.865493 7.30608 0.585788 7.58579C0.306083 7.86549 0.115601 8.22186 0.0384303 8.60982C-0.0387401 8.99778 0.000866562 9.39992 0.152242 9.76537C0.303617 10.1308 0.559963 10.4432 0.888861 10.6629C1.21776 10.8827 1.60444 11 2 11C2.53043 11 3.03914 10.7893 3.41421 10.4142C3.78929 10.0391 4 9.53043 4 9ZM4 2C4 1.60444 3.8827 1.21776 3.66294 0.88886C3.44318 0.559962 3.13082 0.303617 2.76537 0.152242C2.39992 0.000866562 1.99778 -0.0387401 1.60982 0.0384303C1.22186 0.115601 0.865493 0.306082 0.585788 0.585787C0.306083 0.865492 0.115601 1.22186 0.0384303 1.60982C-0.0387401 1.99778 0.000866562 2.39992 0.152242 2.76537C0.303617 3.13082 0.559963 3.44318 0.888861 3.66294C1.21776 3.8827 1.60444 4 2 4C2.53043 4 3.03914 3.78929 3.41421 3.41421C3.78929 3.03914 4 2.53043 4 2ZM4 16C4 15.6044 3.8827 15.2178 3.66294 14.8889C3.44318 14.56 3.13082 14.3036 2.76537 14.1522C2.39992 14.0009 1.99778 13.9613 1.60982 14.0384C1.22186 14.1156 0.865493 14.3061 0.585788 14.5858C0.306083 14.8655 0.115601 15.2219 0.0384303 15.6098C-0.0387401 15.9978 0.000866562 16.3999 0.152242 16.7654C0.303617 17.1308 0.559963 17.4432 0.888861 17.6629C1.21776 17.8827 1.60444 18 2 18C2.53043 18 3.03914 17.7893 3.41421 17.4142C3.78929 17.0391 4 16.5304 4 16Z" fill="#7A7A7A"/>
<path d="M12 9C12 8.60444 11.8827 8.21776 11.6629 7.88886C11.4432 7.55996 11.1308 7.30362 10.7654 7.15224C10.3999 7.00087 9.99778 6.96126 9.60982 7.03843C9.22186 7.1156 8.86549 7.30608 8.58579 7.58579C8.30608 7.86549 8.1156 8.22186 8.03843 8.60982C7.96126 8.99778 8.00087 9.39992 8.15224 9.76537C8.30362 10.1308 8.55996 10.4432 8.88886 10.6629C9.21776 10.8827 9.60444 11 10 11C10.5304 11 11.0391 10.7893 11.4142 10.4142C11.7893 10.0391 12 9.53043 12 9ZM12 2C12 1.60444 11.8827 1.21776 11.6629 0.88886C11.4432 0.559962 11.1308 0.303617 10.7654 0.152242C10.3999 0.000866562 9.99778 -0.0387401 9.60982 0.0384303C9.22186 0.115601 8.86549 0.306082 8.58579 0.585787C8.30608 0.865492 8.1156 1.22186 8.03843 1.60982C7.96126 1.99778 8.00087 2.39992 8.15224 2.76537C8.30362 3.13082 8.55996 3.44318 8.88886 3.66294C9.21776 3.8827 9.60444 4 10 4C10.5304 4 11.0391 3.78929 11.4142 3.41421C11.7893 3.03914 12 2.53043 12 2ZM12 16C12 15.6044 11.8827 15.2178 11.6629 14.8889C11.4432 14.56 11.1308 14.3036 10.7654 14.1522C10.3999 14.0009 9.99778 13.9613 9.60982 14.0384C9.22186 14.1156 8.86549 14.3061 8.58579 14.5858C8.30608 14.8655 8.1156 15.2219 8.03843 15.6098C7.96126 15.9978 8.00087 16.3999 8.15224 16.7654C8.30362 17.1308 8.55996 17.4432 8.88886 17.6629C9.21776 17.8827 9.60444 18 10 18C10.5304 18 11.0391 17.7893 11.4142 17.4142C11.7893 17.0391 12 16.5304 12 16Z" fill="#7A7A7A"/>
</svg>
