<svg width="24" height="24" viewBox="0 0 24 24" fill="none" xmlns="http://www.w3.org/2000/svg">
<path d="M10.5902 16.9997L14.8302 12.7097C14.9239 12.6167 14.9983 12.5061 15.0491 12.3843C15.0998 12.2624 15.126 12.1317 15.126 11.9997C15.126 11.8677 15.0998 11.737 15.0491 11.6151C14.9983 11.4933 14.9239 11.3827 14.8302 11.2897L10.5902 7.0497C10.4972 6.95598 10.3866 6.88158 10.2648 6.83081C10.1429 6.78004 10.0122 6.75391 9.88018 6.75391C9.74817 6.75391 9.61746 6.78004 9.4956 6.83081C9.37374 6.88158 9.26314 6.95598 9.17018 7.0497C8.98393 7.23707 8.87939 7.49052 8.87939 7.7547C8.87939 8.01889 8.98393 8.27234 9.17018 8.4597L12.7102 11.9997L9.17018 15.5397C8.98543 15.726 8.88128 15.9774 8.88018 16.2397C8.87942 16.3713 8.90464 16.5018 8.95441 16.6236C9.00417 16.7454 9.0775 16.8563 9.17018 16.9497C9.2598 17.0468 9.36776 17.1251 9.48784 17.1802C9.60791 17.2353 9.73772 17.2661 9.86975 17.2708C10.0018 17.2754 10.1334 17.2539 10.2571 17.2073C10.3807 17.1608 10.494 17.0902 10.5902 16.9997Z" fill="#5F84FE"/>
</svg>
