<svg width="24" height="24" viewBox="0 0 24 24" fill="none" xmlns="http://www.w3.org/2000/svg">
<path d="M14.8303 16.9997C15.0166 16.8123 15.1211 16.5589 15.1211 16.2947C15.1211 16.0305 15.0166 15.7771 14.8303 15.5897L11.2903 11.9997L14.8303 8.4597C15.0166 8.27234 15.1211 8.01889 15.1211 7.7547C15.1211 7.49052 15.0166 7.23707 14.8303 7.0497C14.7373 6.95598 14.6267 6.88158 14.5049 6.83081C14.383 6.78004 14.2523 6.75391 14.1203 6.75391C13.9883 6.75391 13.8576 6.78004 13.7357 6.83081C13.6139 6.88158 13.5033 6.95598 13.4103 7.0497L9.1703 11.2897C9.07657 11.3827 9.00218 11.4933 8.95141 11.6151C8.90064 11.737 8.8745 11.8677 8.8745 11.9997C8.8745 12.1317 8.90064 12.2624 8.95141 12.3843C9.00218 12.5061 9.07657 12.6167 9.1703 12.7097L13.4103 16.9997C13.5033 17.0934 13.6139 17.1678 13.7357 17.2186C13.8576 17.2694 13.9883 17.2955 14.1203 17.2955C14.2523 17.2955 14.383 17.2694 14.5049 17.2186C14.6267 17.1678 14.7373 17.0934 14.8303 16.9997Z" fill="#5F84FE"/>
</svg>
