<svg width="24" height="24" viewBox="0 0 24 24" fill="none" xmlns="http://www.w3.org/2000/svg">
<path d="M17.7101 9.70994C17.8038 9.61698 17.8782 9.50637 17.929 9.38452C17.9797 9.26266 18.0059 9.13195 18.0059 8.99994C18.0059 8.86793 17.9797 8.73722 17.929 8.61536C17.8782 8.4935 17.8038 8.3829 17.7101 8.28994L12.7101 3.28994C12.6171 3.19621 12.5065 3.12182 12.3846 3.07105C12.2628 3.02028 12.1321 2.99414 12.0001 2.99414C11.868 2.99414 11.7373 3.02028 11.6155 3.07105C11.4936 3.12182 11.383 3.19621 11.2901 3.28994L6.29006 8.28994C6.19633 8.3829 6.12194 8.4935 6.07117 8.61536C6.0204 8.73722 5.99426 8.86793 5.99426 8.99994C5.99426 9.13195 6.0204 9.26266 6.07117 9.38452C6.12194 9.50637 6.19633 9.61698 6.29006 9.70994C6.38303 9.80367 6.49362 9.87806 6.61548 9.92883C6.73734 9.9796 6.86805 10.0057 7.00006 10.0057C7.13207 10.0057 7.26278 9.9796 7.38464 9.92883C7.5065 9.87806 7.6171 9.80367 7.71006 9.70994L12.0001 5.40994L16.2901 9.70994C16.383 9.80367 16.4936 9.87806 16.6155 9.92883C16.7373 9.9796 16.868 10.0057 17.0001 10.0057C17.1321 10.0057 17.2628 9.9796 17.3846 9.92883C17.5065 9.87806 17.6171 9.80367 17.7101 9.70994ZM12.7101 20.7099L17.7101 15.7099C17.8033 15.6167 17.8773 15.506 17.9277 15.3842C17.9782 15.2624 18.0042 15.1318 18.0042 14.9999C18.0042 14.7336 17.8984 14.4782 17.7101 14.2899C17.6168 14.1967 17.5061 14.1227 17.3843 14.0723C17.2625 14.0218 17.1319 13.9958 17.0001 13.9958C16.7338 13.9958 16.4784 14.1016 16.2901 14.2899L12.0001 18.5899L7.71006 14.2899C7.6171 14.1962 7.5065 14.1218 7.38464 14.071C7.26278 14.0203 7.13207 13.9941 7.00006 13.9941C6.86805 13.9941 6.73734 14.0203 6.61548 14.071C6.49362 14.1218 6.38303 14.1962 6.29006 14.2899C6.19633 14.3829 6.12194 14.4935 6.07117 14.6154C6.0204 14.7372 5.99426 14.8679 5.99426 14.9999C5.99426 15.132 6.0204 15.2627 6.07117 15.3845C6.12194 15.5064 6.19633 15.617 6.29006 15.7099L11.2901 20.7099C11.383 20.8037 11.4936 20.8781 11.6155 20.9288C11.7373 20.9796 11.868 21.0057 12.0001 21.0057C12.1321 21.0057 12.2628 20.9796 12.3846 20.9288C12.5065 20.8781 12.6171 20.8037 12.7101 20.7099Z" fill="#7A7A7A"/>
</svg>
