<svg width="24" height="24" viewBox="0 0 24 24" fill="none" xmlns="http://www.w3.org/2000/svg">
<path d="M20.25 11.25H19.5V4.5C19.5 4.30109 19.421 4.11032 19.2803 3.96967C19.1397 3.82902 18.9489 3.75 18.75 3.75H15C15 3.15326 14.7629 2.58097 14.341 2.15901C13.919 1.73705 13.3467 1.5 12.75 1.5H11.25C10.6533 1.5 10.081 1.73705 9.65901 2.15901C9.23705 2.58097 9 3.15326 9 3.75H5.25C5.05109 3.75 4.86032 3.82902 4.71967 3.96967C4.57902 4.11032 4.5 4.30109 4.5 4.5V11.25H3.75C3.15326 11.25 2.58097 11.4871 2.15901 11.909C1.73705 12.331 1.5 12.9033 1.5 13.5V17.25C1.5 17.8467 1.73705 18.419 2.15901 18.841C2.58097 19.2629 3.15326 19.5 3.75 19.5H4.5C4.5 20.2956 4.81607 21.0587 5.37868 21.6213C5.94129 22.1839 6.70435 22.5 7.5 22.5H16.5C17.2956 22.5 18.0587 22.1839 18.6213 21.6213C19.1839 21.0587 19.5 20.2956 19.5 19.5H20.25C20.8467 19.5 21.419 19.2629 21.841 18.841C22.2629 18.419 22.5 17.8467 22.5 17.25V13.5C22.5 12.9033 22.2629 12.331 21.841 11.909C21.419 11.4871 20.8467 11.25 20.25 11.25ZM20.25 12.75C20.4489 12.75 20.6397 12.829 20.7803 12.9697C20.921 13.1103 21 13.3011 21 13.5V14.25H19.5V12.75H20.25ZM11.25 3H12.75C12.9489 3 13.1397 3.07902 13.2803 3.21967C13.421 3.36032 13.5 3.55109 13.5 3.75H10.5C10.5 3.55109 10.579 3.36032 10.7197 3.21967C10.8603 3.07902 11.0511 3 11.25 3ZM18 5.25V8.6925L16.41 10.2825C16.3399 10.352 16.2568 10.407 16.1654 10.4443C16.0741 10.4817 15.9762 10.5006 15.8775 10.5H8.1225C8.0238 10.5006 7.92595 10.4817 7.83457 10.4443C7.74319 10.407 7.66008 10.352 7.59 10.2825L6 8.6925V5.25H18ZM3.75 12.75H4.5V14.25H3V13.5C3 13.3011 3.07902 13.1103 3.21967 12.9697C3.36032 12.829 3.55109 12.75 3.75 12.75ZM3.75 18C3.55109 18 3.36032 17.921 3.21967 17.7803C3.07902 17.6397 3 17.4489 3 17.25V15.75H4.5V18H3.75ZM18 19.5C18 19.8978 17.842 20.2794 17.5607 20.5607C17.2794 20.842 16.8978 21 16.5 21H7.5C7.10218 21 6.72064 20.842 6.43934 20.5607C6.15804 20.2794 6 19.8978 6 19.5V10.8075L6.5325 11.34C6.95405 11.7621 7.52596 11.9995 8.1225 12H15.8775C16.474 11.9995 17.0459 11.7621 17.4675 11.34L18 10.8075V19.5ZM20.25 18H19.5V15.75H21V17.25C21 17.4489 20.921 17.6397 20.7803 17.7803C20.6397 17.921 20.4489 18 20.25 18Z" fill="#7A7A7A"/>
<path d="M15 13.5H9C8.60218 13.5 8.22064 13.658 7.93934 13.9393C7.65804 14.2206 7.5 14.6022 7.5 15V16.9425C7.50167 17.3397 7.66081 17.72 7.9425 18L9 19.0575C9.28001 19.3392 9.66032 19.4983 10.0575 19.5H13.9425C14.3397 19.4983 14.72 19.3392 15 19.0575L16.0575 18C16.3392 17.72 16.4983 17.3397 16.5 16.9425V15C16.5 14.6022 16.342 14.2206 16.0607 13.9393C15.7794 13.658 15.3978 13.5 15 13.5ZM15 16.9425L13.9425 18H10.0575L9 16.9425V15H15V16.9425Z" fill="#7A7A7A"/>
</svg>
