<svg width="21" height="21" viewBox="0 0 21 21" fill="none" xmlns="http://www.w3.org/2000/svg">
<path d="M0.555582 4.47223L4.88308 5.64223V10.6897C4.88507 11.996 5.40485 13.2482 6.3285 14.1718C7.25216 15.0955 8.50434 15.6152 9.81058 15.6172H11.2056C12.5118 15.6152 13.764 15.0955 14.6877 14.1718C15.6113 13.2482 16.1311 11.996 16.1331 10.6897V5.64223L20.4606 4.47223C20.6164 4.42679 20.7532 4.33205 20.8506 4.20223C20.948 4.07241 21.0006 3.91451 21.0006 3.75223C21.0006 3.58995 20.948 3.43205 20.8506 3.30223C20.7532 3.17241 20.6164 3.07767 20.4606 3.03223L10.7106 0.03223C10.5688 -0.0107433 10.4174 -0.0107433 10.2756 0.03223L0.525582 3.03223C0.370648 3.08082 0.235667 3.17837 0.14092 3.31024C0.046174 3.4421 -0.00321925 3.60115 0.000162796 3.76349C0.00354484 3.92583 0.0595195 4.08268 0.159676 4.21049C0.259832 4.33829 0.398759 4.43014 0.555582 4.47223ZM14.6331 10.6897C14.6311 11.5982 14.2694 12.4688 13.627 13.1111C12.9847 13.7535 12.114 14.1152 11.2056 14.1172H9.81058C8.90216 14.1152 8.03151 13.7535 7.38916 13.1111C6.74681 12.4688 6.38506 11.5982 6.38308 10.6897V6.05473L10.3056 7.14223C10.4376 7.18229 10.5786 7.18229 10.7106 7.14223L14.6331 6.05473V10.6897ZM10.5081 1.50973L17.5881 3.72223L10.5081 5.64223L3.42808 3.72223L10.5081 1.50973Z" fill="#7A7A7A"/>
<path d="M17.8431 16.0073C17.7561 15.8963 17.6396 15.8122 17.507 15.7644C17.3743 15.7167 17.2309 15.7073 17.0931 15.7373L10.5081 17.2223L3.92312 15.7223C3.78537 15.6923 3.64194 15.7017 3.50928 15.7494C3.37663 15.7972 3.26012 15.8814 3.17312 15.9923L0.173122 19.7423C0.0860705 19.8521 0.0314998 19.984 0.0155931 20.1232C-0.000313606 20.2624 0.0230795 20.4032 0.083122 20.5298C0.141742 20.6602 0.236429 20.7712 0.356023 20.8496C0.475617 20.928 0.615132 20.9706 0.758122 20.9723H20.2581C20.3995 20.9719 20.5379 20.9316 20.6573 20.8559C20.7767 20.7803 20.8723 20.6724 20.9331 20.5448C20.9932 20.4182 21.0166 20.2774 21.0007 20.1382C20.9847 19.999 20.9302 19.8671 20.8431 19.7573L17.8431 16.0073ZM2.31812 19.4723L4.05062 17.3048L10.3431 18.7223C10.452 18.7447 10.5643 18.7447 10.6731 18.7223L16.9656 17.3198L18.6981 19.4723H2.31812Z" fill="#7A7A7A"/>
</svg>
