<svg width="16" height="20" viewBox="0 0 16 20" fill="none" xmlns="http://www.w3.org/2000/svg">
<path d="M5 7.99998H6C6.26522 7.99998 6.51957 7.89463 6.70711 7.70709C6.89464 7.51955 7 7.2652 7 6.99998C7 6.73477 6.89464 6.48041 6.70711 6.29288C6.51957 6.10534 6.26522 5.99998 6 5.99998H5C4.73478 5.99998 4.48043 6.10534 4.29289 6.29288C4.10536 6.48041 4 6.73477 4 6.99998C4 7.2652 4.10536 7.51955 4.29289 7.70709C4.48043 7.89463 4.73478 7.99998 5 7.99998ZM5 9.99998C4.73478 9.99998 4.48043 10.1053 4.29289 10.2929C4.10536 10.4804 4 10.7348 4 11C4 11.2652 4.10536 11.5196 4.29289 11.7071C4.48043 11.8946 4.73478 12 5 12H11C11.2652 12 11.5196 11.8946 11.7071 11.7071C11.8946 11.5196 12 11.2652 12 11C12 10.7348 11.8946 10.4804 11.7071 10.2929C11.5196 10.1053 11.2652 9.99998 11 9.99998H5ZM16 6.93998C15.9896 6.84812 15.9695 6.75761 15.94 6.66998V6.57998C15.8919 6.47716 15.8278 6.38265 15.75 6.29998L9.75 0.299983C9.66734 0.222199 9.57282 0.158064 9.47 0.109983C9.44015 0.105743 9.40985 0.105743 9.38 0.109983C9.27841 0.0517241 9.16622 0.014327 9.05 -1.71661e-05H3C2.20435 -1.71661e-05 1.44129 0.316053 0.87868 0.878663C0.316071 1.44127 0 2.20433 0 2.99998V17C0 17.7956 0.316071 18.5587 0.87868 19.1213C1.44129 19.6839 2.20435 20 3 20H13C13.7956 20 14.5587 19.6839 15.1213 19.1213C15.6839 18.5587 16 17.7956 16 17V6.99998C16 6.99998 16 6.99998 16 6.93998ZM10 3.40998L12.59 5.99998H11C10.7348 5.99998 10.4804 5.89463 10.2929 5.70709C10.1054 5.51955 10 5.2652 10 4.99998V3.40998ZM14 17C14 17.2652 13.8946 17.5196 13.7071 17.7071C13.5196 17.8946 13.2652 18 13 18H3C2.73478 18 2.48043 17.8946 2.29289 17.7071C2.10536 17.5196 2 17.2652 2 17V2.99998C2 2.73477 2.10536 2.48041 2.29289 2.29288C2.48043 2.10534 2.73478 1.99998 3 1.99998H8V4.99998C8 5.79563 8.31607 6.55869 8.87868 7.1213C9.44129 7.68391 10.2044 7.99998 11 7.99998H14V17ZM11 14H5C4.73478 14 4.48043 14.1053 4.29289 14.2929C4.10536 14.4804 4 14.7348 4 15C4 15.2652 4.10536 15.5196 4.29289 15.7071C4.48043 15.8946 4.73478 16 5 16H11C11.2652 16 11.5196 15.8946 11.7071 15.7071C11.8946 15.5196 12 15.2652 12 15C12 14.7348 11.8946 14.4804 11.7071 14.2929C11.5196 14.1053 11.2652 14 11 14Z" fill="#7A7A7A"/>
</svg>
