<svg width="15" height="15" viewBox="0 0 15 15" fill="none" xmlns="http://www.w3.org/2000/svg">
<path d="M9.81783 7.94377C10.4306 7.46168 10.8778 6.80059 11.0974 6.05248C11.3169 5.30437 11.2978 4.50643 11.0427 3.76968C10.7876 3.03294 10.3092 2.39401 9.67413 1.9418C9.03901 1.48959 8.27874 1.24658 7.49908 1.24658C6.71943 1.24658 5.95915 1.48959 5.32404 1.9418C4.68892 2.39401 4.21055 3.03294 3.95547 3.76968C3.70038 4.50643 3.68128 5.30437 3.90081 6.05248C4.12034 6.80059 4.56759 7.46168 5.18033 7.94377C4.13038 8.36442 3.21426 9.06211 2.52964 9.96246C1.84502 10.8628 1.41756 11.9321 1.29283 13.0563C1.2838 13.1383 1.29103 13.2214 1.3141 13.3007C1.33717 13.38 1.37562 13.4539 1.42728 13.5183C1.53159 13.6484 1.68332 13.7318 1.84908 13.75C2.01484 13.7683 2.18106 13.7199 2.31116 13.6156C2.44126 13.5113 2.5246 13.3595 2.54283 13.1938C2.68007 11.972 3.26264 10.8436 4.17922 10.0243C5.0958 9.20487 6.28214 8.75191 7.51158 8.75191C8.74102 8.75191 9.92736 9.20487 10.8439 10.0243C11.7605 10.8436 12.3431 11.972 12.4803 13.1938C12.4973 13.3473 12.5706 13.4892 12.686 13.5919C12.8014 13.6946 12.9508 13.751 13.1053 13.75H13.1741C13.3379 13.7312 13.4877 13.6483 13.5907 13.5195C13.6937 13.3908 13.7417 13.2265 13.7241 13.0625C13.5988 11.9351 13.169 10.8631 12.4809 9.96139C11.7927 9.05966 10.8722 8.36219 9.81783 7.94377ZM7.49908 7.50002C7.00463 7.50002 6.52128 7.35339 6.11016 7.07869C5.69903 6.80399 5.3786 6.41354 5.18938 5.95673C5.00016 5.49991 4.95066 4.99724 5.04712 4.51229C5.14358 4.02734 5.38168 3.58188 5.73132 3.23225C6.08095 2.88262 6.5264 2.64452 7.01136 2.54805C7.49631 2.45159 7.99898 2.5011 8.45579 2.69032C8.91261 2.87954 9.30305 3.19997 9.57776 3.61109C9.85246 4.02221 9.99908 4.50556 9.99908 5.00002C9.99908 5.66306 9.73569 6.29894 9.26685 6.76778C8.79801 7.23663 8.16212 7.50002 7.49908 7.50002Z" fill="#7A7A7A"/>
</svg>
