<svg width="25" height="25" viewBox="0 0 25 25" fill="none" xmlns="http://www.w3.org/2000/svg">
<path d="M17.7083 9.55205C17.5132 9.35804 17.2492 9.24915 16.974 9.24915C16.6988 9.24915 16.4348 9.35804 16.2396 9.55205L12.5 13.2396L8.81252 9.55205C8.61735 9.35804 8.35334 9.24915 8.07814 9.24915C7.80295 9.24915 7.53894 9.35804 7.34377 9.55205C7.24613 9.64889 7.16864 9.7641 7.11576 9.89104C7.06287 10.018 7.03564 10.1541 7.03564 10.2916C7.03564 10.4292 7.06287 10.5653 7.11576 10.6922C7.16864 10.8192 7.24613 10.9344 7.34377 11.0312L11.7604 15.4479C11.8573 15.5455 11.9725 15.623 12.0994 15.6759C12.2264 15.7288 12.3625 15.756 12.5 15.756C12.6375 15.756 12.7737 15.7288 12.9006 15.6759C13.0276 15.623 13.1428 15.5455 13.2396 15.4479L17.7083 11.0312C17.806 10.9344 17.8835 10.8192 17.9364 10.6922C17.9892 10.5653 18.0165 10.4292 18.0165 10.2916C18.0165 10.1541 17.9892 10.018 17.9364 9.89104C17.8835 9.7641 17.806 9.64889 17.7083 9.55205Z" fill="#7A7A7A"/>
</svg>
